<svg width="24" height="18" viewBox="0 0 24 18" fill="none" xmlns="http://www.w3.org/2000/svg">
<path d="M23.5312 5.95312C22.4062 6.82812 20 8.59375 16.3125 11.25L15.8438 11.625C15.125 12.1875 14.5312 12.5938 14.0625 12.8438C13.3125 13.2812 12.625 13.5 12 13.5C11.375 13.5 10.6875 13.2969 9.9375 12.8906C9.5 12.6406 8.90625 12.2344 8.15625 11.6719L7.6875 11.25C3.90625 8.5 1.5 6.73438 0.46875 5.95312C0.375 5.89062 0.265625 5.89062 0.140625 5.95312C0.046875 5.98438 0 6.0625 0 6.1875V15.75C0 16.375 0.21875 16.9062 0.65625 17.3438C1.09375 17.7812 1.625 18 2.25 18H21.75C22.375 18 22.9062 17.7812 23.3438 17.3438C23.7812 16.9062 24 16.375 24 15.75V6.1875C24 6.0625 23.9375 5.96875 23.8125 5.90625C23.7188 5.84375 23.625 5.85938 23.5312 5.95312ZM12 12C11.5938 12 11.0938 11.8125 10.5 11.4375C10.1562 11.25 9.67188 10.9062 9.04688 10.4062L8.57812 10.0781C4.73438 7.26562 2.125 5.32812 0.75 4.26562L0.421875 4.03125C0.140625 3.8125 0 3.51562 0 3.14062V2.25C0 1.625 0.21875 1.09375 0.65625 0.65625C1.09375 0.21875 1.625 0 2.25 0H21.75C22.375 0 22.9062 0.21875 23.3438 0.65625C23.7812 1.09375 24 1.625 24 2.25V3.14062C24 3.51562 23.8594 3.8125 23.5781 4.03125L23.3438 4.21875C22 5.28125 19.3594 7.23438 15.4219 10.0781L14.9531 10.4062C14.3281 10.9062 13.8438 11.25 13.5 11.4375C12.9062 11.8125 12.4062 12 12 12Z" fill="#101010"/>
</svg>
