<svg width="20" height="27" viewBox="0 0 20 27" fill="none" xmlns="http://www.w3.org/2000/svg">
<path d="M8.98438 25.7422C8.10417 24.4557 6.97005 22.8307 5.58203 20.8672C3.88932 18.4297 2.77214 16.7878 2.23047 15.9414C1.45182 14.7227 0.927083 13.707 0.65625 12.8945C0.385417 12.0482 0.25 11.0833 0.25 10C0.25 8.23958 0.690104 6.61458 1.57031 5.125C2.45052 3.63542 3.63542 2.45052 5.125 1.57031C6.61458 0.690104 8.23958 0.25 10 0.25C11.7604 0.25 13.3854 0.690104 14.875 1.57031C16.3646 2.45052 17.5495 3.63542 18.4297 5.125C19.3099 6.61458 19.75 8.23958 19.75 10C19.75 11.0833 19.6146 12.0482 19.3438 12.8945C19.0729 13.707 18.5482 14.7227 17.7695 15.9414C17.2279 16.7878 16.1107 18.4297 14.418 20.8672L11.0156 25.7422C10.7786 26.0807 10.4401 26.25 10 26.25C9.5599 26.25 9.22135 26.0807 8.98438 25.7422ZM10 14.0625C11.1172 14.0625 12.0651 13.6732 12.8438 12.8945C13.6562 12.082 14.0625 11.1172 14.0625 10C14.0625 8.88281 13.6562 7.9349 12.8438 7.15625C12.0651 6.34375 11.1172 5.9375 10 5.9375C8.88281 5.9375 7.91797 6.34375 7.10547 7.15625C6.32682 7.9349 5.9375 8.88281 5.9375 10C5.9375 11.1172 6.32682 12.082 7.10547 12.8945C7.91797 13.6732 8.88281 14.0625 10 14.0625Z" fill="#101010"/>
</svg>
