<svg width="17" height="27" viewBox="0 0 17 27" fill="none" xmlns="http://www.w3.org/2000/svg">
<path d="M14.1875 0.25C14.8646 0.25 15.4401 0.486979 15.9141 0.960938C16.388 1.4349 16.625 2.01042 16.625 2.6875V23.8125C16.625 24.4896 16.388 25.0651 15.9141 25.5391C15.4401 26.013 14.8646 26.25 14.1875 26.25H2.8125C2.13542 26.25 1.5599 26.013 1.08594 25.5391C0.611979 25.0651 0.375 24.4896 0.375 23.8125V2.6875C0.375 2.01042 0.611979 1.4349 1.08594 0.960938C1.5599 0.486979 2.13542 0.25 2.8125 0.25H14.1875ZM8.5 24.625C8.9401 24.625 9.3125 24.4557 9.61719 24.1172C9.95573 23.8125 10.125 23.4401 10.125 23C10.125 22.5599 9.95573 22.1875 9.61719 21.8828C9.3125 21.5443 8.9401 21.375 8.5 21.375C8.0599 21.375 7.67057 21.5443 7.33203 21.8828C7.02734 22.1875 6.875 22.5599 6.875 23C6.875 23.4401 7.02734 23.8125 7.33203 24.1172C7.67057 24.4557 8.0599 24.625 8.5 24.625ZM14.1875 19.1406V3.29688C14.1875 3.1276 14.1198 2.99219 13.9844 2.89062C13.8828 2.75521 13.7474 2.6875 13.5781 2.6875H3.42188C3.2526 2.6875 3.10026 2.75521 2.96484 2.89062C2.86328 2.99219 2.8125 3.1276 2.8125 3.29688V19.1406C2.8125 19.3099 2.86328 19.4622 2.96484 19.5977C3.10026 19.6992 3.2526 19.75 3.42188 19.75H13.5781C13.7474 19.75 13.8828 19.6992 13.9844 19.5977C14.1198 19.4622 14.1875 19.3099 14.1875 19.1406Z" fill="#101010"/>
</svg>
