<svg width="30" height="24" viewBox="0 0 30 24" fill="none" xmlns="http://www.w3.org/2000/svg">
<path opacity="0.75" d="M12 19.5C11.9688 20.7812 11.5312 21.8438 10.6875 22.6875C9.84375 23.5312 8.78125 23.9688 7.5 24C6.21875 23.9688 5.15625 23.5312 4.3125 22.6875C3.46875 21.8438 3.03125 20.7812 3 19.5C2.15625 19.4688 1.45312 19.1719 0.890625 18.6094C0.328125 18.0469 0.03125 17.3438 0 16.5V3C0.03125 2.15625 0.328125 1.45312 0.890625 0.890625C1.45312 0.328125 2.15625 0.03125 3 0H16.5C17.3438 0.03125 18.0469 0.328125 18.6094 0.890625C19.1719 1.45312 19.4688 2.15625 19.5 3V4.5H21.5156C22.2344 4.5 22.8438 4.75 23.3438 5.25L27.75 9.65625C28.25 10.1562 28.5 10.7656 28.5 11.4844V17.25H28.875C29.5625 17.3125 29.9375 17.6875 30 18.375C29.9375 19.0625 29.5625 19.4375 28.875 19.5H27C26.9688 20.7812 26.5312 21.8438 25.6875 22.6875C24.8438 23.5312 23.7812 23.9688 22.5 24C21.2188 23.9688 20.1562 23.5312 19.3125 22.6875C18.4688 21.8438 18.0312 20.7812 18 19.5H12ZM16.5 2.25H3C2.53125 2.28125 2.28125 2.53125 2.25 3V16.5C2.28125 16.9688 2.53125 17.2188 3 17.25H3.60938C4.01562 16.5625 4.54688 16.0156 5.20312 15.6094C5.89062 15.2031 6.65625 15 7.5 15C8.34375 15 9.10938 15.2031 9.79688 15.6094C10.4531 16.0156 10.9844 16.5625 11.3906 17.25H16.5C16.9688 17.2188 17.2188 16.9688 17.25 16.5V3C17.2188 2.53125 16.9688 2.28125 16.5 2.25ZM21.75 6.84375C21.6875 6.78125 21.6094 6.75 21.5156 6.75H19.5V11.25H26.1562L21.75 6.84375ZM7.5 17.25C6.875 17.2812 6.34375 17.5 5.90625 17.9062C5.5 18.3438 5.28125 18.875 5.25 19.5C5.28125 20.125 5.5 20.6562 5.90625 21.0938C6.34375 21.5 6.875 21.7188 7.5 21.75C8.125 21.7188 8.65625 21.5 9.09375 21.0938C9.5 20.6562 9.71875 20.125 9.75 19.5C9.71875 18.875 9.5 18.3438 9.09375 17.9062C8.65625 17.5 8.125 17.2812 7.5 17.25ZM22.5 21.75C23.125 21.7188 23.6562 21.5 24.0938 21.0938C24.5 20.6562 24.7188 20.125 24.75 19.5C24.7188 18.875 24.5 18.3438 24.0938 17.9062C23.6562 17.5 23.125 17.2812 22.5 17.25C21.875 17.2812 21.3438 17.5 20.9062 17.9062C20.5 18.3438 20.2812 18.875 20.25 19.5C20.2812 20.125 20.5 20.6562 20.9062 21.0938C21.3438 21.5 21.875 21.7188 22.5 21.75Z" fill="#101010"/>
</svg>
