<svg width="24" height="24" viewBox="0 0 24 24" fill="none" xmlns="http://www.w3.org/2000/svg">
<path opacity="0.75" d="M12 0C14.25 0.03125 16.2656 0.59375 18.0469 1.6875C19.8281 2.78125 21.2344 4.23437 22.2656 6.04688C23.3281 7.85938 23.9062 9.84375 24 12V18.75C23.9688 19.9062 23.5625 20.875 22.7812 21.6562C22 22.4375 21.0312 22.8438 19.875 22.875H14.6719C14.2656 23.5938 13.625 23.9688 12.75 24H11.2031C10.5781 23.9688 10.0625 23.75 9.65625 23.3438C9.25 22.9062 9.03125 22.375 9 21.75C9.03125 21.125 9.25 20.5938 9.65625 20.1562C10.0938 19.75 10.625 19.5312 11.25 19.5H12.75C13.625 19.5312 14.2656 19.9062 14.6719 20.625H19.875C20.4062 20.625 20.8438 20.4375 21.1875 20.0625C21.5625 19.7188 21.75 19.2812 21.75 18.75V17.7656C21.375 17.9219 20.9844 18 20.5781 18H19.7344C19.2344 18 18.8281 17.8281 18.5156 17.4844C18.1719 17.1719 18 16.7656 18 16.2656V9.98438C18 9.48438 18.1719 9.07812 18.5156 8.76562C18.8281 8.42188 19.2344 8.25 19.7344 8.25H20.5781C20.6406 8.25 20.7031 8.25 20.7656 8.25C20.8281 8.28125 20.9062 8.28125 21 8.25C20.25 6.46875 19.0781 5.03125 17.4844 3.9375C15.8906 2.84375 14.0625 2.28125 12 2.25C9.9375 2.28125 8.10938 2.84375 6.51562 3.9375C4.92188 5.03125 3.75 6.48437 3 8.29688C3.03125 8.29688 3.0625 8.29688 3.09375 8.29688C3.21875 8.26562 3.32812 8.25 3.42188 8.25H4.26562C4.76562 8.25 5.17188 8.42188 5.48438 8.76562C5.82812 9.07812 6 9.48438 6 9.98438V16.2656C6 16.7656 5.82812 17.1719 5.48438 17.4844C5.17188 17.8281 4.76562 18 4.26562 18H3.42188C2.45312 17.9688 1.64062 17.625 0.984375 16.9688C0.359375 16.3125 0.03125 15.4844 0 14.4844V12C0.09375 9.84375 0.671875 7.85938 1.73438 6.04688C2.76562 4.23437 4.17188 2.78125 5.95312 1.6875C7.73438 0.59375 9.75 0.03125 12 0ZM3.42188 10.5C2.76562 10.5625 2.375 10.9531 2.25 11.6719C2.25 11.7031 2.25 11.75 2.25 11.8125C2.25 11.875 2.25 11.9375 2.25 12V14.4844C2.25 14.8281 2.35938 15.125 2.57812 15.375C2.79688 15.625 3.07812 15.75 3.42188 15.75H3.75V10.5H3.42188ZM20.5781 15.75C20.9219 15.75 21.2031 15.625 21.4219 15.375C21.6406 15.125 21.75 14.8281 21.75 14.4844V12C21.75 11.9375 21.75 11.875 21.75 11.8125C21.75 11.75 21.75 11.7031 21.75 11.6719C21.625 10.9531 21.2344 10.5625 20.5781 10.5H20.25V15.75H20.5781Z" fill="#101010"/>
</svg>
