<svg width="24" height="24" viewBox="0 0 24 24" fill="none" xmlns="http://www.w3.org/2000/svg">
<path opacity="0.75" d="M21.8906 3.9375C22.7656 4.34375 23.2188 5.01562 23.25 5.95312C23.1562 10.0156 22.3594 13.3906 20.8594 16.0781C19.3281 18.7344 17.6875 20.7188 15.9375 22.0312C14.1875 23.3438 12.875 24 12 24C11.125 24 9.79688 23.3438 8.01562 22.0312C6.26562 20.6875 4.64062 18.6875 3.14062 16.0312C1.64062 13.3438 0.84375 9.98438 0.75 5.95312C0.78125 5.01562 1.25 4.34375 2.15625 3.9375L11.1562 0.1875C11.4375 0.0625 11.7188 0 12 0C12.3125 0 12.6094 0.0625 12.8906 0.1875L21.8906 3.9375ZM12 21.75C13.5 21.125 14.9219 20.0938 16.2656 18.6562C17.6406 17.2188 18.7656 15.4375 19.6406 13.3125C20.5156 11.1562 20.9688 8.71875 21 6L12 2.25L3 6C3.09375 10 4.01562 13.375 5.76562 16.125C7.54688 18.875 9.625 20.75 12 21.75ZM9.375 11.5781L10.8281 12.9844L14.5312 8.57812C14.75 8.32812 15.0312 8.20312 15.375 8.20312C15.7812 8.23438 16.0781 8.375 16.2656 8.625C16.4219 8.90625 16.5 9.14062 16.5 9.32812C16.5 9.60938 16.4062 9.85938 16.2188 10.0781L11.7188 15.3281C11.3438 15.6406 11.0625 15.7656 10.875 15.7031C10.5625 15.7344 10.2969 15.625 10.0781 15.375L7.82812 13.125C7.60938 12.9375 7.5 12.6719 7.5 12.3281C7.5625 11.6719 7.9375 11.2969 8.625 11.2031C8.9375 11.2344 9.1875 11.3594 9.375 11.5781Z" fill="#101010"/>
</svg>
